<?xml version="1.0" encoding="UTF-8"?>
<svg version="1.1" xmlns="http://www.w3.org/2000/svg" width="512" height="512">
<path d="M0 0 C4.12279192 0.00914431 8.24551904 -0.00496515 12.36829758 -0.01591969 C20.42114874 -0.03361055 28.47384991 -0.02990731 36.5267067 -0.01826912 C43.07743169 -0.00919766 49.62811496 -0.00802676 56.17884445 -0.01236439 C57.11483144 -0.01297732 58.05081843 -0.01359025 59.01516867 -0.01422176 C60.9172179 -0.01550079 62.81926713 -0.01679765 64.72131634 -0.01811212 C82.51389757 -0.02949029 100.30639608 -0.01644775 118.09896374 0.00508934 C133.3317681 0.0229578 148.56445049 0.01985291 163.79725266 0.0014143 C181.53063333 -0.02004141 199.26394168 -0.02839191 216.99733353 -0.01613665 C218.89198429 -0.01486259 220.78663507 -0.0136051 222.68128586 -0.01236439 C223.61324075 -0.01174729 224.54519565 -0.01113018 225.5053916 -0.01049438 C232.04044057 -0.00705555 238.57544327 -0.01283799 245.11048508 -0.0222826 C253.08571738 -0.03355638 261.06079241 -0.03035036 269.03600693 -0.00915962 C273.09708423 0.00127898 277.15790031 0.00559719 281.21897507 -0.00775623 C313.99068304 -0.10631518 342.46802042 5.11435943 366.68397141 28.71430492 C391.45121616 54.0452423 396.06487917 83.0568653 395.95296383 117.09283352 C395.94381952 121.21562544 395.95792898 125.33835256 395.96888351 129.4611311 C395.98657438 137.51398226 395.98287114 145.56668343 395.97123295 153.61954021 C395.96216149 160.17026521 395.96099059 166.72094848 395.96532822 173.27167797 C395.96594115 174.20766496 395.96655408 175.14365195 395.96718559 176.10800219 C395.96846462 178.01005142 395.96976148 179.91210065 395.97107595 181.81414986 C395.98245411 199.60673109 395.96941158 217.39922959 395.94787449 235.19179726 C395.93000603 250.42460162 395.93311092 265.65728401 395.95154953 280.89008617 C395.97300524 298.62346685 395.98135574 316.3567752 395.96910048 334.09016705 C395.96782642 335.98481781 395.96656893 337.87946859 395.96532822 339.77411938 C395.96471111 340.70607427 395.96409401 341.63802917 395.96345821 342.59822512 C395.96001938 349.13327409 395.96580182 355.66827679 395.97524643 362.2033186 C395.98652021 370.17855089 395.98331419 378.15362593 395.96212345 386.12884045 C395.95168485 390.18991775 395.94736664 394.25073383 395.96072006 398.31180859 C396.05927901 431.08351655 390.83860439 459.56085394 367.23865891 483.77680492 C341.90772153 508.54404968 312.89609853 513.15771269 278.86013031 513.04579735 C274.73733839 513.03665304 270.61461127 513.0507625 266.49183273 513.06171703 C258.43898157 513.0794079 250.3862804 513.07570466 242.33342361 513.06406647 C235.78269862 513.05499501 229.23201535 513.05382411 222.68128586 513.05816174 C221.74529887 513.05877467 220.80931188 513.0593876 219.84496164 513.06001911 C217.94291241 513.06129814 216.04086318 513.062595 214.13881397 513.06390947 C196.34623274 513.07528763 178.55373423 513.0622451 160.76116657 513.04070801 C145.52836221 513.02283955 130.29567982 513.02594444 115.06287766 513.04438305 C97.32949698 513.06583876 79.59618863 513.07418926 61.86279678 513.06193399 C59.96814602 513.06065994 58.07349524 513.05940245 56.17884445 513.05816174 C55.24688956 513.05754463 54.31493466 513.05692753 53.35473871 513.05629173 C46.81968974 513.0528529 40.28468704 513.05863534 33.74964523 513.06807995 C25.77441293 513.07935373 17.7993379 513.07614771 9.82412338 513.05495697 C5.76304608 513.04451837 1.70223 513.04020016 -2.35884476 513.05355358 C-35.13055273 513.15211253 -63.60789011 507.93143791 -87.82384109 484.33149242 C-112.59108585 459.00055505 -117.20474886 429.98893205 -117.09283352 395.95296383 C-117.08368921 391.83017191 -117.09779867 387.70744478 -117.1087532 383.58466625 C-117.12644407 375.53181509 -117.12274083 367.47911392 -117.11110264 359.42625713 C-117.10203118 352.87553214 -117.10086028 346.32484887 -117.10519791 339.77411938 C-117.10581084 338.83813239 -117.10642377 337.9021454 -117.10705528 336.93779516 C-117.10833431 335.03574593 -117.10963117 333.1336967 -117.11094564 331.23164749 C-117.1223238 313.43906626 -117.10928127 295.64656775 -117.08774418 277.85400009 C-117.06987572 262.62119573 -117.07298061 247.38851334 -117.09141922 232.15571117 C-117.11287493 214.4223305 -117.12122543 196.68902215 -117.10897017 178.9556303 C-117.10769611 177.06097954 -117.10643862 175.16632876 -117.10519791 173.27167797 C-117.10427225 171.87374563 -117.10427225 171.87374563 -117.1033279 170.44757223 C-117.09988907 163.91252326 -117.10567151 157.37752056 -117.11511612 150.84247875 C-117.1263899 142.86724645 -117.12318388 134.89217142 -117.10199314 126.9169569 C-117.09155454 122.8558796 -117.08723633 118.79506352 -117.10058975 114.73398876 C-117.1991487 81.96228079 -111.97847408 53.48494341 -88.37852859 29.26899242 C-63.04759122 4.50174767 -34.03596822 -0.11191534 0 0 Z " fill="#FED924" transform="translate(116.5699348449707,-0.5228986740112305)"/>
<path d="M0 0 C0.33 0 0.66 0 1 0 C1.08636719 0.8971875 1.17273438 1.794375 1.26171875 2.71875 C3.50294583 22.62249145 10.31823286 40.2727053 23 56 C23.67675781 56.84175781 24.35351562 57.68351562 25.05078125 58.55078125 C41.04435794 77.35127451 63.78417648 88.48669191 88 92 C92.81972871 92.37790741 97.60569517 92.41089084 102.43855286 92.38768005 C103.82460749 92.39186614 105.2106587 92.39735056 106.59670371 92.40399987 C110.35906129 92.4183064 114.12119707 92.41425679 117.88356602 92.40683305 C121.95936962 92.40206653 126.03512759 92.41464179 130.11091614 92.42485046 C138.07792479 92.44197637 146.04485435 92.44289139 154.01187662 92.43763756 C160.4930657 92.43358282 166.97423156 92.43505484 173.45541954 92.44038582 C174.38071156 92.44113424 175.30600357 92.44188266 176.25933474 92.44265376 C178.13956057 92.44418537 180.0197864 92.44572372 181.90001222 92.44726873 C199.5008523 92.46097145 217.10164784 92.4555719 234.7024869 92.44408352 C250.77166872 92.43415467 266.84073533 92.44708978 282.90989939 92.47101771 C299.44707461 92.49545523 315.98419628 92.5050051 332.52138919 92.49836498 C341.79079615 92.49488293 351.0601146 92.49703745 360.32950783 92.51461601 C368.22063077 92.52939638 376.11160285 92.52989775 384.00272302 92.5125451 C388.02125542 92.50408024 392.039519 92.5017736 396.0580368 92.51719666 C414.97082267 92.58465013 433.30480048 92.50225348 450.9375 84.6875 C451.98284912 84.23866455 451.98284912 84.23866455 453.04931641 83.78076172 C477.02344994 73.182897 495.30577 53.19646767 504.9375 29 C508.04103534 20.85454679 509.76847512 12.60894535 511 4 C511.33 4 511.66 4 512 4 C512.09368794 11.90324663 512.16425554 19.80625193 512.20724869 27.70992088 C512.22790863 31.3820122 512.25581677 35.05371699 512.30175781 38.72558594 C512.7014497 71.56271034 507.50988676 99.93396238 483.80859375 124.25390625 C458.47765637 149.021151 429.46603338 153.63481401 395.43006516 153.52289867 C391.30727324 153.51375436 387.18454611 153.52786383 383.06176758 153.53881836 C375.00891642 153.55650922 366.95621525 153.55280599 358.90335846 153.5411678 C352.35263346 153.53209633 345.80195019 153.53092544 339.2512207 153.53526306 C338.31523371 153.53587599 337.37924672 153.53648893 336.41489649 153.53712043 C334.51284725 153.53839947 332.61079803 153.53969632 330.70874882 153.5410108 C312.91616758 153.55238896 295.12366908 153.53934642 277.33110142 153.51780933 C262.09829705 153.49994088 246.86561467 153.50304576 231.6328125 153.52148438 C213.89943183 153.54294009 196.16612347 153.55129058 178.43273163 153.53903532 C176.53808086 153.53776126 174.64343009 153.53650378 172.7487793 153.53526306 C171.8168244 153.53464596 170.88486951 153.53402886 169.92467356 153.53339306 C163.38962458 153.52995423 156.85462188 153.53573667 150.31958008 153.54518127 C142.34434778 153.55645506 134.36927275 153.55324904 126.39405823 153.5320583 C122.33298093 153.52161969 118.27216485 153.51730149 114.21109009 153.53065491 C81.43938212 153.62921385 52.96204473 148.40853924 28.74609375 124.80859375 C4.83582772 100.35413958 -0.66781167 72.28310903 -0.32800674 39.31625366 C-0.31046342 37.77929412 -0.29267937 36.24233731 -0.2746582 34.7053833 C-0.23315311 30.7828442 -0.21534738 26.8601971 -0.1953125 22.9375 C-0.15288541 15.29137806 -0.08495419 7.6457806 0 0 Z " fill="#FFC023" transform="translate(0,359)"/>
<path d="M0 0 C0.08636719 1.03898437 0.17273438 2.07796875 0.26171875 3.1484375 C1.32852471 14.32507502 3.40397232 23.51988551 11.96875 31.46484375 C19.12957414 36.8767743 26.07614757 39.11688842 34.93678284 39.14717102 C35.63481032 39.15084771 36.3328378 39.1545244 37.05201763 39.1583125 C39.39088707 39.16932486 41.72971205 39.17318905 44.06860352 39.17700195 C45.74590699 39.18326859 47.42320907 39.18991557 49.10050964 39.19691467 C54.60996538 39.21793844 60.11942133 39.22831735 65.62890625 39.23828125 C67.52810111 39.24232982 69.42729583 39.24644677 71.3264904 39.25063133 C80.25230439 39.26968145 89.17811014 39.28391133 98.10394055 39.2922433 C108.39294987 39.30200721 118.68174357 39.32830537 128.97067696 39.36874419 C136.93179965 39.39895532 144.89286073 39.41371702 152.85403961 39.41702431 C157.60463434 39.41936962 162.35499868 39.4282619 167.10553169 39.45348549 C171.57977978 39.47685799 176.05364731 39.48096276 180.52794075 39.47072411 C182.16330739 39.47023081 183.79869335 39.47648981 185.43400192 39.49028015 C198.78049186 39.59646225 208.97380374 37.96530067 218.90234375 28.3671875 C221.76022543 25.14209197 223.56753249 22.04609245 225 18 C225.391875 16.906875 225.78375 15.81375 226.1875 14.6875 C227.26034345 9.81844126 227.65864071 4.96767602 228 0 C231.02867241 1.33444745 232.92990267 2.72500476 235.0625 5.25 C235.54847656 5.81203125 236.03445313 6.3740625 236.53515625 6.953125 C241.03149596 13.23601036 241.48357865 18.22767083 241.375 25.75 C241.36412354 26.77061523 241.35324707 27.79123047 241.34204102 28.84277344 C240.65371281 62.10071418 226.10558237 91.47016258 203 115 C200.06711917 117.75063535 197.0794395 120.41479153 194 123 C190.74957109 121.60493574 188.92628208 120.03216606 186.6875 117.3125 C186.07261719 116.59449219 185.45773437 115.87648438 184.82421875 115.13671875 C184.22222656 114.43160156 183.62023437 113.72648437 183 113 C170.7438566 98.6742176 149.02823635 87.34415543 130.29833984 85.17431641 C101.45259475 82.98652567 74.74787144 87.71342765 51.984375 106.40625 C46.1597174 111.46851786 40.51017316 116.70873935 36 123 C16.98963891 114.88472793 3.02560405 89.51203223 -4.3125 71.3125 C-10.08562139 56.05610719 -13.11015447 41.90354119 -13.375 25.625 C-13.41415527 24.23390015 -13.41415527 24.23390015 -13.45410156 22.81469727 C-13.47265257 15.45193598 -11.7477828 10.43182999 -7.1484375 4.6875 C-6.56320313 4.130625 -5.97796875 3.57375 -5.375 3 C-4.78460938 2.4225 -4.19421875 1.845 -3.5859375 1.25 C-2 0 -2 0 0 0 Z " fill="#473535" transform="translate(142,262)"/>
<path d="M0 0 C1.0513916 -0.01426025 1.0513916 -0.01426025 2.12402344 -0.02880859 C15.0060921 0.05303043 27.13708649 5.62337939 37.3125 13.25 C37.90417969 13.66507813 38.49585938 14.08015625 39.10546875 14.5078125 C48.54717614 21.7241289 54.50564405 33.26130237 58.3125 44.25 C58.745625 45.4875 59.17875 46.725 59.625 48 C61.93081157 58.64220725 60.69014152 70.0293445 57.3125 80.25 C57.04566406 81.09949219 56.77882813 81.94898438 56.50390625 82.82421875 C51.06159893 98.23199548 38.734093 110.16796772 24.3125 117.25 C9.80807899 123.46348244 -6.36372834 124.55106662 -21.4453125 119.5703125 C-38.22946907 112.73531862 -50.96485859 100.50987066 -58.125 83.875 C-63.63326623 70.57711476 -63.95321299 53.51009386 -58.8671875 39.98828125 C-58.47789063 39.08464844 -58.08859375 38.18101562 -57.6875 37.25 C-57.36007813 36.39792969 -57.03265625 35.54585937 -56.6953125 34.66796875 C-50.5272423 20.3733535 -36.87745261 9.51239287 -22.9296875 3.47265625 C-15.34947611 0.6140946 -8.02607848 0.08871478 0 0 Z " fill="#FEFDFC" transform="translate(167.6875,111.75)"/>
<path d="M0 0 C3.54088238 2.81080354 6.80170175 5.80717828 10 9 C10.6496875 9.63808594 11.299375 10.27617187 11.96875 10.93359375 C22.50131973 22.04360699 26.22224553 35.79422343 26.3125 50.6875 C26.31813965 51.57880615 26.3237793 52.4701123 26.32958984 53.38842773 C26.14899346 69.83341241 18.73675055 83.70606391 7.8125 95.6875 C-4.41498325 107.14561352 -20.34635427 112.82591 -36.96899414 112.45141602 C-53.45853566 111.63718863 -67.55145087 104.79796625 -79 93 C-79.96873047 92.04480469 -79.96873047 92.04480469 -80.95703125 91.0703125 C-89.68277498 81.90733107 -95.28308166 68.63041422 -96 56 C-96.06445312 54.97003906 -96.12890625 53.94007813 -96.1953125 52.87890625 C-96.78757164 35.17035798 -89.9802691 19.85739595 -78 7 C-71.45359057 0.79639242 -64.25394985 -3.43882002 -56 -7 C-55.2471875 -7.34160156 -54.494375 -7.68320313 -53.71875 -8.03515625 C-36.84403901 -14.42259087 -14.44072485 -9.94315558 0 0 Z " fill="#FEFDFC" transform="translate(381,122)"/>
<path d="M0 0 C1.28114491 -0.00935994 1.28114491 -0.00935994 2.58817154 -0.01890898 C5.42544791 -0.03475369 8.26185494 -0.02226837 11.09913635 -0.00964355 C13.14333087 -0.0150685 15.18752147 -0.02219325 17.23170471 -0.03088379 C22.76688866 -0.04907675 28.30177347 -0.04206584 33.83696246 -0.02936745 C39.6392106 -0.01921759 45.44143368 -0.02863877 51.24368286 -0.03491211 C60.98737673 -0.04218329 70.73094921 -0.03261523 80.47462463 -0.0135498 C91.72582593 0.00821172 102.97673719 0.00117053 114.22793144 -0.02085543 C123.90125041 -0.03903173 133.57448227 -0.04155664 143.24781281 -0.03110075 C149.01938729 -0.02487732 154.79082564 -0.02399844 160.56239128 -0.0372467 C165.99046975 -0.04883675 171.41817587 -0.04072167 176.84621429 -0.01766968 C178.83352351 -0.01239919 180.82086429 -0.01386778 182.80816078 -0.02272034 C202.09994082 -0.10070641 202.09994082 -0.10070641 210.05055237 4.50793457 C210.60271849 15.32801793 209.13625972 24.89018238 202.05055237 33.50793457 C194.79463642 41.26478195 187.14891462 45.48728093 176.34284878 45.96949291 C172.62346589 46.05278723 168.907317 46.04585408 165.18727112 46.0255127 C163.50893041 46.03094279 161.83059449 46.0380704 160.15226746 46.04675293 C155.62327865 46.06488382 151.09465706 46.05796137 146.56566238 46.04523659 C141.80890723 46.03505556 137.05218191 46.04451636 132.29542542 46.05078125 C124.30977274 46.05804287 116.32426842 46.04850906 108.33863831 46.02941895 C99.12778299 46.00765307 89.91728194 46.0147055 80.7064352 46.03672457 C72.77486626 46.05492102 64.8434035 46.05741619 56.91182041 46.04696989 C52.18484255 46.04075824 47.4580308 46.03983483 42.73106384 46.05311584 C38.28539457 46.06473575 33.84017865 46.05653745 29.39455795 46.03353882 C27.77049382 46.02828433 26.14639103 46.02970911 24.52234268 46.03858948 C11.16003033 46.1048762 1.05782008 44.41638806 -8.85569763 34.80090332 C-16.23473058 26.7197609 -18.33529937 17.5111364 -18.05491638 6.81652832 C-18.02011169 6.05469238 -17.98530701 5.29285645 -17.94944763 4.50793457 C-11.818672 1.33105028 -6.88512145 -0.07874572 0 0 Z " fill="#FCFCFB" transform="translate(159.94944763183594,256.4920654296875)"/>
<path d="M0 0 C1.04655762 0.3700415 1.04655762 0.3700415 2.11425781 0.74755859 C16.46992584 5.92360623 27.96615495 13.40521799 39 24 C39.68320312 24.64324219 40.36640625 25.28648437 41.0703125 25.94921875 C44.33895811 29.10161545 46.73639175 32.02686074 49 36 C22.7259203 56.82632236 -10.1641431 65.75452199 -43.44335938 62.78173828 C-64.39612794 60.27498359 -83.90252089 53.21066808 -101.5625 41.6875 C-102.21234863 41.26702393 -102.86219727 40.84654785 -103.53173828 40.41333008 C-105.31640625 39.19921875 -105.31640625 39.19921875 -108 37 C-108 31.45583501 -102.69416253 27.80233713 -99 24 C-98.19175781 23.16597656 -97.38351563 22.33195312 -96.55078125 21.47265625 C-71.8929607 -2.42994775 -32.53388274 -11.65854783 0 0 Z " fill="#FD7D27" transform="translate(286,350)"/>
<path d="M0 0 C1.55074219 -0.00386719 1.55074219 -0.00386719 3.1328125 -0.0078125 C5.875 0.125 5.875 0.125 8.875 1.125 C7.875 4.125 7.875 4.125 5.5 5.9375 C1.52187797 9.2526017 0.10302556 11.96709962 -0.4453125 17.15625 C-0.68229758 24.04461635 -0.43176321 28.65424674 3.875 34.125 C9.40418119 39.2394926 13.62126523 40.59019496 21.05078125 40.44140625 C26.66923657 39.81195275 30.48845606 37.65749594 34.25 33.5 C34.78625 32.71625 35.3225 31.9325 35.875 31.125 C36.535 30.465 37.195 29.805 37.875 29.125 C41.10759941 35.59019881 39.52474139 47.47882182 37.3125 54.125 C32.97250879 64.19561341 25.39363456 72.13606234 15.625 77 C6.18403992 80.67412678 -6.15086718 81.01218836 -15.75 77.5625 C-27.51808515 71.71946121 -34.81434929 62.95964097 -39.20703125 50.69140625 C-41.80323087 40.60489452 -41.03371449 30.35049576 -36.125 21.125 C-29.49421417 10.76850036 -20.73473909 3.5886433 -8.671875 0.49609375 C-5.75246213 0.07071917 -2.94991389 -0.00739327 0 0 Z " fill="#483636" transform="translate(167.125,132.875)"/>
<path d="M0 0 C0 0.66 0 1.32 0 2 C-1.42578125 3.296875 -1.42578125 3.296875 -3.3125 4.75 C-7.30731021 8.1140507 -9.59306952 10.97854116 -10.3125 16.3203125 C-10.60888165 22.37761254 -9.62366025 27.08067053 -6 32 C-2.28455239 35.8758874 0.94779103 38.75084008 6.48828125 39.203125 C13.80609636 39.32458251 18.16595136 38.63632431 23.6875 33.5 C24.450625 32.675 25.21375 31.85 26 31 C27 30 28 29 29 28 C32.07682203 37.23046609 30.3519313 47.37171524 26.5390625 56.0625 C21.16155997 66.32615966 13.12270358 73.49810379 2.16137695 77.41552734 C-1.53527785 78.41516494 -5.12840032 78.44563661 -8.9375 78.375 C-10.12653931 78.35977295 -10.12653931 78.35977295 -11.33959961 78.34423828 C-23.21068089 78.02891459 -31.9445484 73.42994113 -40.25 64.9375 C-47.88157186 55.76435062 -49.99203779 45.59178788 -49.41796875 33.9609375 C-48.19917208 22.41084573 -41.81634707 13.83460336 -33.0703125 6.53515625 C-23.93292202 -0.24030499 -11.0616713 -3.68722377 0 0 Z " fill="#483636" transform="translate(356,134)"/>
<path d="M0 0 C3.12855203 3.54970327 4.54138321 6.66585874 5 11.34375 C4.50125588 17.42842828 2.32499418 22.15673572 -2.375 26.15625 C-8.59924122 30.08944073 -16.02683832 28.45569342 -22.875 27.15625 C-46.14378959 23.04822916 -65.22987346 29.8111745 -85.42578125 40.859375 C-90.08900592 42.9543555 -94.31520439 43.15995011 -99.3125 42.15625 C-103.83154699 39.48424483 -107.35603525 36.08049219 -109.3125 31.15625 C-110.14431976 25.92352335 -109.67560165 21.36185707 -106.69921875 16.83984375 C-103.9389771 13.48867712 -100.73678235 10.80591911 -97.3125 8.15625 C-96.66667969 7.65222656 -96.02085938 7.14820312 -95.35546875 6.62890625 C-85.46301029 -0.50198637 -73.1884714 -5.32299075 -61.3125 -7.84375 C-60.41917969 -8.04742187 -59.52585938 -8.25109375 -58.60546875 -8.4609375 C-40.70329131 -12.03647499 -14.97782571 -11.94177996 0 0 Z " fill="#493634" transform="translate(208.3125,61.84375)"/>
<path d="M0 0 C0.92167969 0.39058594 1.84335937 0.78117187 2.79296875 1.18359375 C11.94523432 5.38868874 21.22419153 11.63503601 27 20 C28.66026461 24.98079383 28.59903425 29.30273629 26.875 34.1875 C24.02713826 38.45929262 20.22575848 42.25058136 15.06640625 43.44921875 C6.81214162 44.23472599 1.36069699 40.84209213 -5.57885742 36.92871094 C-18.11147908 29.97342106 -31.48553374 26.8003585 -45.8125 26.8125 C-46.60785156 26.81185547 -47.40320313 26.81121094 -48.22265625 26.81054688 C-53.25730039 26.85579286 -57.86303678 27.38380241 -62.7734375 28.53125 C-67.79183177 29.58775406 -72.5660274 30.16119915 -77.30078125 27.90234375 C-81.96747501 24.70305644 -84.44231117 21.54926646 -86 16 C-86.72580886 10.19352909 -85.4561318 6.54396345 -82 2 C-75.46860519 -4.53139481 -65.69938659 -6.00814045 -57 -8 C-56.21238281 -8.18820313 -55.42476563 -8.37640625 -54.61328125 -8.5703125 C-36.18267605 -11.60075581 -16.85617981 -7.33121947 0 0 Z " fill="#483634" transform="translate(385,61)"/>
</svg>
