<?xml version="1.0" encoding="UTF-8"?>
<svg version="1.1" xmlns="http://www.w3.org/2000/svg" width="512" height="512">
<path d="M0 0 C3.40628587 3.01920793 5.72897727 5.95204152 6.75 10.4375 C6.49324616 18.15521824 4.14959036 24.69684489 1.4375 31.875 C0.96337975 33.1475937 0.48934339 34.42021865 0.01538086 35.69287109 C-11.5683913 66.58015878 -23.91074724 97.26593073 -37.25 127.4375 C-37.75515137 128.58766602 -38.26030273 129.73783203 -38.78076172 130.92285156 C-46.33732623 148.10550946 -54.26120059 165.08331452 -62.53125 181.93261719 C-63.66069291 184.2357823 -64.78582811 186.54106579 -65.90625 188.84863281 C-73.19707999 203.86406213 -81.01597175 218.42332066 -89.62158203 232.72753906 C-91.13472276 235.24565932 -92.63001925 237.77346198 -94.12109375 240.3046875 C-102.31584584 254.10389648 -111.23732074 267.66237798 -122.29296875 279.35546875 C-124.11590491 281.29483995 -125.76624709 283.30563226 -127.4375 285.375 C-138.02999225 297.45629877 -152.76672513 306.35057568 -167.75 311.75 C-168.3891333 311.98050049 -169.0282666 312.21100098 -169.68676758 312.44848633 C-181.30903046 316.37155833 -192.75981086 317.97420402 -205 317.875 C-206.9634436 317.86472778 -206.9634436 317.86472778 -208.96655273 317.85424805 C-238.50415921 317.36697335 -264.4547797 304.86181569 -285.1640625 284.01123047 C-304.23404304 264.05464448 -313.68603351 237.56001981 -313.5625 210.1875 C-313.55758545 208.90351318 -313.5526709 207.61952637 -313.54760742 206.29663086 C-313.4363578 197.30595006 -312.87101904 189.08580169 -310.25 180.4375 C-309.92128906 179.31472656 -309.59257812 178.19195312 -309.25390625 177.03515625 C-304.76957274 163.24078777 -297.90612622 150.28574057 -288.25 139.4375 C-287.66476562 138.73367188 -287.07953125 138.02984375 -286.4765625 137.3046875 C-236.11130573 77.36775298 -136.56532605 45.50883349 -33 5 C-31.69212021 4.50874634 -31.69212021 4.50874634 -30.3578186 4.00756836 C-27.90117709 3.08649934 -25.44316068 2.16923419 -22.984375 1.25390625 C-21.89351845 0.84574425 -21.89351845 0.84574425 -20.78062439 0.42933655 C-13.22171589 -2.3699848 -7.52807012 -3.61926448 0 0 Z " fill="#000000" transform="translate(313.25,194.5625)"/>
<path d="M0 0 C40.19434114 25.67232691 81.76536347 45.35496685 130.73046875 41.2890625 C148.86452561 39.79645585 148.86452561 39.79645585 154.98046875 44.7890625 C158.41753187 49.50479493 159.73985765 53.93091957 158.98046875 59.7890625 C155.46115681 69.564929 146.07886486 73.0238001 137.35546875 77.2890625 C136.10591506 77.90591881 134.85648706 78.5230298 133.60717773 79.14038086 C120.50708515 85.58990254 107.26590662 91.73206143 93.98046875 97.7890625 C92.80371582 98.32917969 91.62696289 98.86929688 90.41455078 99.42578125 C-60.05775821 168.42383934 -60.05775821 168.42383934 -124.01953125 148.7890625 C-124.65181641 148.59570312 -125.28410156 148.40234375 -125.93554688 148.203125 C-142.03972321 143.12254746 -155.19818867 134.76755734 -167.01953125 122.7890625 C-167.75816406 122.04914063 -168.49679688 121.30921875 -169.2578125 120.546875 C-189.19967986 99.40462339 -193.94448973 73.10168399 -193.203125 45.14111328 C-192.8285269 38.30170909 -191.2841906 32.24781137 -189.01953125 25.7890625 C-188.66890625 24.68175781 -188.31828125 23.57445312 -187.95703125 22.43359375 C-180.03137025 -0.60035854 -162.20884533 -18.64487598 -140.9296875 -29.8359375 C-89.50605667 -54.76860699 -43.09399535 -27.57531014 0 0 Z " fill="#000000" transform="translate(193.01953125,39.2109375)"/>
<path d="M0 0 C4.03732582 2.26560614 6.53749543 4.93843929 7.8125 9.4375 C8.54480888 16.67568338 7.63209082 23.95653858 7.04296875 31.1796875 C3.56753546 80.30699873 25.97312978 122.27161535 51.64013672 162.31640625 C73.69871211 196.77331621 95.9511574 233.62360006 86.63037109 276.4362793 C85.83412116 279.49087867 84.85668286 282.45951796 83.8125 285.4375 C83.461875 286.54480469 83.11125 287.65210938 82.75 288.79296875 C75.17305253 310.81347235 58.62723119 327.85708442 38.8125 339.4375 C38.04808594 339.88867188 37.28367187 340.33984375 36.49609375 340.8046875 C16.60046042 351.64460955 -10.49506651 354.28637751 -32.24609375 348.40625 C-33.21675781 348.0865625 -34.18742187 347.766875 -35.1875 347.4375 C-36.25097656 347.0971875 -37.31445312 346.756875 -38.41015625 346.40625 C-50.92088907 341.99245153 -62.28977302 335.27007424 -72.1875 326.4375 C-73.00734375 325.71175781 -73.8271875 324.98601562 -74.671875 324.23828125 C-90.91986663 308.97425185 -102.31937306 286.11967395 -103.30957031 263.66992188 C-105.28370674 186.65481636 -72.82739088 112.58084778 -40.1875 44.4375 C-39.84509277 43.72088196 -39.50268555 43.00426392 -39.14990234 42.26593018 C-36.86509426 37.48429414 -34.57200478 32.7067424 -32.26907349 27.93380737 C-31.51481204 26.37045873 -30.76159331 24.80660652 -30.00949097 23.24221802 C-28.95769659 21.05757675 -27.89972587 18.87603934 -26.83984375 16.6953125 C-26.52994507 16.04969864 -26.22004639 15.40408478 -25.90075684 14.73890686 C-22.88793833 8.57381573 -19.89851015 3.39127626 -14.1875 -0.5625 C-9.13945496 -2.24518168 -4.86666054 -2.12462419 0 0 Z " fill="#000000" transform="translate(424.1875,161.5625)"/>
</svg>
